<?xml version="1.0" encoding="UTF-8"?>
<!DOCTYPE svg PUBLIC "-//W3C//DTD SVG 1.1//EN" "http://www.w3.org/Graphics/SVG/1.1/DTD/svg11.dtd">
<!-- Creator: CorelDRAW 2019 (64-Bit) -->
<svg xmlns="http://www.w3.org/2000/svg" xml:space="preserve" width="196.789mm" height="106.428mm" version="1.1" style="shape-rendering:geometricPrecision; text-rendering:geometricPrecision; image-rendering:optimizeQuality; fill-rule:evenodd; clip-rule:evenodd"
viewBox="0 0 195.2409 105.591"
 xmlns:xlink="http://www.w3.org/1999/xlink"
 xmlns:xodm="http://www.corel.com/coreldraw/odm/2003">
 <defs>
  <style type="text/css">
   <![CDATA[
    .fil4 {fill:#248EC8}
    .fil0 {fill:#254295}
    .fil5 {fill:#339D31}
    .fil3 {fill:#6973BE}
    .fil2 {fill:#9D37AB}
    .fil1 {fill:#B01738}
    .fil7 {fill:#DE690C}
    .fil6 {fill:#F1BE00}
    .fil8 {fill:#FEFEFE}
   ]]>
  </style>
 </defs>
 <g id="Layer_x0020_1">
  <metadata id="CorelCorpID_0Corel-Layer"/>
  <g id="_751020416">
   <polygon class="fil0" points="168.4393,63.5115 142.3433,63.5115 142.3433,67.7921 152.5632,67.7921 152.5632,83.9945 158.2196,83.9945 158.2196,67.7921 168.4393,67.7921 "/>
   <path class="fil0" d="M64.5206 77.0047l4.9307 -9.8426 1.1822 0.0257c0,0 1.035,-0.1318 1.9122,1.429 0.876,1.5606 4.2022,8.388 4.2022,8.388l-12.2273 0zm15.7285 6.9899l0 0 7.5141 0 -10.1593 -18.1375c0,0 -1.0315,-2.3455 -2.849,-2.3455l-6.5447 0 -11.4743 20.483 4.283 0 2.0036 -3.9997 15.2229 0 2.0037 3.9997z"/>
   <path class="fil0" d="M123.1359 77.0047l4.9306 -9.8426 1.1828 0.0257c0,0 1.0352,-0.1318 1.9112,1.429 0.8765,1.5606 4.2022,8.388 4.2022,8.388l-12.2268 0zm15.7288 6.9899l0 0 7.5138 0 -10.1598 -18.1375c0,0 -1.031,-2.3455 -2.848,-2.3455l-6.5459 0 -11.4728 20.483 4.2817 0 2.0041 -3.9997 15.2228 0 2.0041 3.9997z"/>
   <path class="fil0" d="M171.9983 77.0047l4.9306 -9.8426 1.1825 0.0257c0,0 1.0353,-0.1318 1.9113,1.429 0.8766,1.5606 4.2021,8.388 4.2021,8.388l-12.2265 0zm15.7288 6.9899l0 0 7.5137 0 -10.1599 -18.1375c0,0 -1.031,-2.3455 -2.848,-2.3455l-6.5457 0 -11.4732 20.483 4.2818 0 2.0044 -3.9997 15.2227 0 2.0042 3.9997z"/>
   <path class="fil0" d="M109.0776 74.8577c0,3.4139 -2.7976,6.1818 -6.2491,6.1818l-7.7528 0 0 -14.5703 7.7528 0c3.4515,0 6.2491,2.7684 6.2491,6.1824l0 2.2062zm-2.2921 -11.3356l0 0 -11.7098 0 0 -0.0106 -5.6558 0 0 20.483 5.6558 0 0 -0.0081 11.7098 0c4.8478,0 8.7776,-3.8874 8.7776,-8.6823l0 -3.0996c0,-4.795 -3.9298,-8.6823 -8.7776,-8.6823z"/>
   <path class="fil1" d="M51.1035 35.5327c0,0 13.3732,-10.1723 21.145,-5.0291 7.7722,5.1432 3.886,8.9719 10.9153,17.8298 7.0291,8.8582 6.801,9.2013 6.801,9.2013l-1.2009 0.2282c0,0 -6.8571,-9.7151 -9.6578,-12.0007 -2.8001,-2.2858 -9.4865,-5.2005 -18.0579,2.2856l0.3422 0.5144 4.0003 -2.6286c0,0 0.1721,1.8275 -5.0851,8.4575 -5.2585,6.6294 -12.4012,12.0013 -19.6597,12.7438 0,0 -0.5143,1.4286 2.9148,0.9146 0,0 -0.343,10.5719 5.8862,15.5435 0,0 -4.2858,-0.3429 -6.1143,-1.9428 0,0 1.3709,4.2286 2.8567,4.8001 0,0 -3.8856,0.1142 -5.3146,-2.114 0,0 -0.3428,3.3149 1.0288,5.4865 0,0 -5.5428,-2.1154 -6.4574,-6.63 0,0 -0.4004,2.0001 -0.1149,3.6574 0.2861,1.6578 0.9142,3.4297 -0.6278,6.5727 0,0 -5.087,-11.0306 -4.0582,-22.5739 1.0288,-11.5437 8.8578,-21.4308 8.8578,-21.4308 0,0 6.1725,2.3431 7.9432,-0.6284 0,0 -6.3421,1.8287 -13.6576,-2.686 0,0 1.658,0.1715 4.5722,-0.457 0,0 -13.2591,-3.4285 -19.8311,-11.2583 0,0 5.2578,0.9721 6.801,1.4291 0,0 -12.1158,-5.6575 -16.9727,-13.4871l4.6856 1.886c0,0 0.2288,-0.8001 -3.7149,-3.029 -3.9427,-2.2283 -10.0579,-10.9721 -9.2574,-12.0008 0.8006,-1.0287 2.8575,1.6005 12.4584,7.0866 9.6006,5.4861 27.3735,13.4297 27.3735,13.4297l-3.0289 -2.6858c0,0 -1.5992,-8.2295 -1.3142,-8.0012 0.2854,0.2289 3.3144,3.2004 3.3144,3.2004 0,0 -0.9141,-2.8574 -2.4006,-4.2286 -1.4856,-1.3716 -1.4856,-2.2295 -1.4856,-4.1723l0 -3.4859c0,0 2.9148,3.3718 2.9148,2.9148 0,-0.4577 -2.5146,-4.5721 -2.5146,-4.5721 0,0 0.457,-7.6008 0.9145,-8.4007 0.4571,-0.8 0.8568,0.1713 1.6,2.8574 0.7426,2.6859 9.8303,24.8588 15.0295,29.6022 0,0 -2.5151,2.459 -1.8293,2.8014z"/>
   <path class="fil2" d="M72.2491 30.5036c-0.4262,-0.2815 -0.8721,-0.5103 -1.3284,-0.7044 -1.9528,12.3039 -13.4563,9.6155 -13.4563,9.6155l0.4881 1.2674c3.9001,0.5736 6.173,2.6948 7.3902,4.3491 6.4866,-3.4678 11.4514,-1.1563 13.7639,0.7314 2.8001,2.2851 9.6577,12.0002 9.6577,12.0002l1.2004 -0.2282c0,0 0.2288,-0.3431 -6.801,-9.2006 -7.0287,-8.8585 -3.1432,-12.6868 -10.9147,-17.8305z"/>
   <path class="fil3" d="M63.902 41.2673c-1.9509,-2.0481 -6.7295,-1.3651 -6.7295,-1.3651 0,0 0.3899,4.1933 0.8778,8.4851 0.2047,1.8029 1.408,3.7421 2.7345,5.3864 4.7516,-6.1156 4.6059,-7.8401 4.6059,-7.8401l-4.0003 2.6286 -0.3422 -0.5144c1.7133,-1.4968 3.3512,-2.5724 4.8985,-3.3255 -0.5747,-1.3202 -1.2788,-2.6502 -2.0448,-3.4549z"/>
   <path class="fil4" d="M59.8059 39.2186c0,0 -2.2435,-1.9497 -7.9,-1.3646 0,0 4.3888,7.217 -1.268,11.9961 -4.9453,4.1776 -8.7718,2.9884 -12.6538,1.711 -2.3294,3.521 -6.5973,10.9744 -7.3387,19.2879 -0.0738,0.8246 -0.1118,1.6455 -0.127,2.4613 5.2983,-4.5779 15.001,-11.9136 22.4567,-11.6152 2.6789,-2.0673 5.1659,-4.5754 7.3307,-7.3041 1.1652,-1.4689 2.0503,-2.6895 2.7432,-3.72 -1.9744,-1.893 -4.8442,-5.7826 -3.243,-11.4525z"/>
   <path class="fil5" d="M57.5276 57.5756c-4.4069,-1.7013 -11.5578,-2.6095 -18.2029,1.3447 -4.5827,2.7262 -7.2663,8.1427 -8.6905,12.085 -0.1348,1.597 -0.1529,3.1822 -0.085,4.7295 3.2554,-0.1615 8.2365,-2.0798 13.1706,-4.5932 -0.2001,-1.8427 -0.1591,-3.0921 -0.1591,-3.0921 -3.4291,0.5139 -2.9148,-0.9146 -2.9148,-0.9146 6.0508,-0.6196 12.0171,-4.4596 16.8817,-9.5593z"/>
   <path class="fil6" d="M43.5577 68.3053c-5.5703,4.6714 -10.4126,5.499 -13.0464,5.5236 -0.0025,0.481 0.0035,0.9602 0.0187,1.4364l0.3095 0.2347 5.1689 5.8518 4.8295 3.8973c0.0012,-0.5542 0.0373,-0.9123 0.0373,-0.9123 1.4286,2.2277 5.3147,2.1135 5.3147,2.1135 -1.4864,-0.5716 -2.8573,-4.8001 -2.8573,-4.8001 1.8285,1.5999 6.1143,1.9428 6.1143,1.9428 -5.6569,-4.5159 -5.8934,-13.6487 -5.8892,-15.2877z"/>
   <path class="fil7" d="M41.9035 89.8229c-1.1598,-1.8362 -1.0938,-4.4829 -1.0458,-5.2589 -0.9329,-2.3081 -2.4121,-5.6512 -3.5813,-6.8202 -1.481,-1.4807 -2.8446,-3.3942 -6.7622,-4.1543 -0.1165,10.4881 4.1886,19.8334 4.1886,19.8334 1.5432,-3.143 0.9141,-4.9149 0.6284,-6.5727 -0.2855,-1.6573 0.1142,-3.6574 0.1142,-3.6574 0.9146,4.5146 6.4581,6.63 6.4581,6.63z"/>
   <path class="fil8" d="M73.606 35.879c0,0 -0.4388,-1.0972 -1.6825,-0.6583 -1.2433,0.4388 -1.1702,1.6092 0.8046,2.9989 1.975,1.3899 1.9019,-1.0971 0.8778,-2.3406z"/>
   <path class="fil7" d="M37.8914 91.1068c0,0 1.3606,2.6953 3.2999,2.9727 1.9398,0.2773 3.5766,-1.1089 3.5766,-1.1089 0,0 0.2772,2.2423 -1.2594,3.1991 0,0 1.1341,1.814 3.3,1.9147 0,0 -3.249,1.4612 -6.1464,0.5794 0,0 -0.4031,1.4857 0.7557,2.1656 0,0 -2.9722,-0.2516 -2.418,-3.199 0,0 -2.1161,-0.6297 -2.6199,-1.7626 0,0 1.9901,-0.1007 2.494,-0.6549 0.5039,-0.5547 -1.7632,-0.9579 -0.9826,-4.1061z"/>
   <path class="fil7" d="M44.2645 89.0664c0,0 3.073,0.8561 3.8792,0.025 0.8058,-0.8315 -0.7058,-2.9474 -0.7058,-2.9474 0,0 2.1414,0.2773 3.0733,1.5366 0.9323,1.2599 1.9653,1.2347 2.5943,1.2851 0.63,0.0502 2.0158,1.1832 2.0158,1.1832 0,0 -2.4436,-0.5285 -2.3932,0.2018 0.0502,0.7304 1.5366,1.1335 2.2416,3.1741 0.7051,2.0399 0.3277,2.1914 0.3277,2.1914 0,0 -2.5693,-4.1068 -3.5262,-3.6024 -0.9578,0.504 -1.4617,2.418 -4.1312,2.1412 0,0 1.8643,-1.9902 1.0837,-2.9218 -0.7813,-0.9322 -3.4258,-0.403 -4.4592,-2.2668z"/>
   <path class="fil7" d="M49.0005 95.7678c0,0 1.5618,-0.2019 2.116,0.7301 0.5541,0.9323 0.7045,1.1341 0.7045,1.1341 0,0 1.6631,-1.0586 1.7135,-2.1418 0,0 0.4278,1.4607 0.2006,2.2923 -0.2258,0.8315 -0.5031,0.9327 0.3283,1.7637 0.8309,0.8309 1.3096,1.6115 1.3096,2.443 0,0 -1.9644,-1.8631 -2.4935,-1.2593 -0.5288,0.604 0.277,1.9142 1.0828,2.5187 0.8063,0.6044 1.0585,0.9322 1.0585,0.9322 0,0 -2.0406,0.3774 -2.9224,-0.6297 -0.8812,-1.0077 -1.2844,-2.8457 -2.2922,-2.7457 -1.0081,0.1007 -1.2089,1.2845 -1.2089,1.2845 0,0 -0.4278,-2.0147 1.0833,-2.8966 1.5114,-0.8818 0.7056,-2.5947 -0.6801,-3.4255z"/>
   <path class="fil7" d="M57.0104 100.201c0,0 1.3096,1.1084 1.3348,1.6122 0.025,0.5039 -0.4032,0.7801 -0.8819,1.1832 -0.4781,0.4037 -0.4781,0.9574 -0.4781,0.9574 0,0 1.4857,-0.907 2.0652,-0.3278 0.5798,0.5799 -0.1008,1.3355 1.285,1.965 0,0 -0.3026,-1.3598 0.3019,-1.3851 0.6044,-0.025 1.6875,0.1007 2.1158,-0.5799 0,0 -2.0906,-0.3276 -2.0655,-1.2089 0.0258,-0.8813 0.8818,-1.0329 0.8818,-1.0329 0,0 -0.5793,-0.4283 -1.8134,-0.2766 -1.2342,0.1514 -1.2342,-0.8304 -2.7456,-0.9066z"/>
  </g>
 </g>
</svg>
