<?xml version="1.0" encoding="utf-8"?>
<!-- Generator: Adobe Illustrator 21.1.0, SVG Export Plug-In . SVG Version: 6.00 Build 0)  -->
<svg version="1.1" id="Layer_1" xmlns="http://www.w3.org/2000/svg" xmlns:xlink="http://www.w3.org/1999/xlink" x="0px" y="0px"
	 viewBox="0 0 1366 768" style="enable-background:new 0 0 1366 768;" xml:space="preserve">
<style type="text/css">
	.st0{fill-rule:evenodd;clip-rule:evenodd;}
</style>
<g>
	<path class="st0" d="M441.1,314.3h-36.5l-11.2-26.9h-60.8l-10.2,26.9h-35.9l54.8-135.8h39.2L441.1,314.3L441.1,314.3L441.1,314.3z
		 M361.6,210.9l-19.9,52.8h41.8L361.6,210.9L361.6,210.9z"/>
	<polygon class="st0" points="573.5,178.5 603,178.5 603,314.3 569.1,314.3 569.1,229.5 532.5,272.1 527.3,272.1 490.6,229.5 
		490.6,314.3 456.8,314.3 456.8,178.5 486.3,178.5 529.9,228.9 573.5,178.5 	"/>
	<path class="st0" d="M688.8,178.5c49.6,0,75.1,30.9,75.1,68.1c0,39-24.7,67.7-78.9,67.7h-56.2V178.5H688.8L688.8,178.5L688.8,178.5
		z M662.7,289.4h22.1c34.1,0,44.2-23.1,44.2-43c0-23.3-12.6-43-44.6-43h-21.7V289.4L662.7,289.4z"/>
	<polygon class="st0" points="900.7,210.2 831.1,210.2 788.8,167.7 944,167.5 944,322.9 900.7,279.4 900.7,210.2 	"/>
	<polygon class="st0" points="831.1,280.8 831.3,218 787.2,262 787.2,324 851,324 894.3,280.8 831.1,280.8 	"/>
</g>
</svg>
