<?xml version="1.0" encoding="UTF-8"?>
<!DOCTYPE svg PUBLIC "-//W3C//DTD SVG 1.1//EN" "http://www.w3.org/Graphics/SVG/1.1/DTD/svg11.dtd">
<!-- Creator: CorelDRAW 2019 (64-Bit) -->
<svg xmlns="http://www.w3.org/2000/svg" xml:space="preserve" width="184.348mm" height="59.7841mm" version="1.1" style="shape-rendering:geometricPrecision; text-rendering:geometricPrecision; image-rendering:optimizeQuality; fill-rule:evenodd; clip-rule:evenodd"
viewBox="0 0 184.2409 59.7494"
 xmlns:xlink="http://www.w3.org/1999/xlink"
 xmlns:xodm="http://www.corel.com/coreldraw/odm/2003">
 <defs>
  <style type="text/css">
   <![CDATA[
    .fil2 {fill:#C91112}
    .fil1 {fill:#94969A}
    .fil0 {fill:black}
    .fil3 {fill:white}
   ]]>
  </style>
 </defs>
 <g id="Layer_x0020_1">
  <metadata id="CorelCorpID_0Corel-Layer"/>
  <g id="_738157552">
   <g>
    <path class="fil0" d="M107.0713 45.1238l7.2431 -19.9964c2.4147,-6.6554 -6.4384,-4.241 -8.4505,-2.6931 -1.5478,1.207 -4.3955,3.9311 -5.4479,6.8098l-5.7577 15.8797 -12.5052 0 7.2433 -19.9964c2.4142,-6.6554 -6.4384,-4.241 -8.4503,-2.6931 -1.5479,1.207 -4.3958,3.9311 -5.4483,6.8098l-5.7574 15.8797 -12.4749 0 11.5151 -31.7283c3.9934,0 6.1289,0.9287 7.9557,2.6929 0.6499,0.6503 1.0833,1.4861 1.2997,2.3836 1.8573,-1.145 3.8076,-2.1666 5.8196,-3.0335 3.0953,-1.3002 6.4384,-2.012 9.8123,-2.0738 3.9933,0 6.1289,0.9287 7.9551,2.6931 0.6503,0.6499 1.1146,1.4857 1.3004,2.3832 1.8571,-1.1452 3.8074,-2.1667 5.8194,-3.0336 3.0952,-1.2998 6.4384,-2.0119 9.8125,-2.0738 3.9929,0 6.1289,0.9286 7.9548,2.693 1.7963,1.7644 1.7649,5.0145 1.1141,6.8099l-8.0472 22.225 -12.5056 0.0623zm18.8508 -5.6956l0 0 -1.5166 4.3952c4.4886,0.8668 9.0383,1.3003 13.6193,1.3003 7.3985,0 10.432,-0.7429 14.2707,-2.6931 3.2809,-1.6715 5.4174,-3.4359 6.3457,-6.5005 0.8039,-2.6001 -0.2172,-5.0764 -2.5699,-6.6552 -2.3526,-1.5786 -4.6425,-2.3215 -7.3357,-3.807 -2.3827,-1.3003 -3.6527,-2.2908 -3.4983,-3.6528 0.3404,-2.8789 3.4053,-3.8077 7.6159,-3.8077 4.0233,0 8.0793,0.3717 12.0411,1.0838l1.5789 -4.3955c-4.5194,-0.8669 -9.0704,-1.3002 -13.6514,-1.3002 -7.4287,0 -10.4622,0.7428 -14.3008,2.6929 -3.281,1.6715 -5.4175,3.436 -6.3459,6.5006 -0.8051,2.6002 0.216,5.0767 2.5688,6.6551 2.3526,1.5786 4.6438,2.3215 7.3369,3.8072 2.3827,1.3001 3.6527,2.2907 3.4969,3.6528 -0.3404,2.8788 -3.4039,3.8075 -7.6145,3.8075 -4.0233,0 -8.0793,-0.3717 -12.0411,-1.0834zm45.3179 -24.7637l0 0 -1.6718 4.6123c4.272,-0.8048 8.6358,-1.2382 13.0007,-1.2999l1.6718 -4.6122c-4.365,0.0618 -8.6985,0.4951 -13.0007,1.2998zm1.4846 30.4593l0 0 -12.5044 0 8.2023 -22.6588c4.3021,-0.8047 8.637,-1.2381 13.0007,-1.2998l-8.6986 23.9587z"/>
   </g>
   <path class="fil1" d="M49.3105 10.1452c-5.5719,-3.8382 -15.7555,-8.5743 -24.2373,-10.1222 -0.0928,-0.0153 -0.1856,-0.023 -0.2785,-0.023 -0.0927,0 -0.1857,0.0077 -0.2786,0.023 -8.2338,1.5168 -18.2633,6.1601 -24.2064,10.1222 -0.1857,0.1548 -0.3092,0.3717 -0.3092,0.5883 -0.0312,12.1959 2.1667,21.7917 5.1691,28.9731 1.9503,4.6122 5.1078,9.9364 9.2865,13.6816 2.9407,2.7242 6.3767,4.8602 10.091,6.3148 0.186,0.0618 0.3714,0.0618 0.5571,0 3.7457,-1.4547 7.1506,-3.5906 10.0912,-6.3148 4.2099,-3.7452 7.367,-9.3172 9.2861,-13.6816 3.4052,-8.2646 5.2314,-17.9534 5.1696,-28.9731 0,-0.2166 -0.1239,-0.4334 -0.3405,-0.5883z"/>
   <path class="fil2" d="M43.1815 39.0876c-1.3926,3.2189 -4.4261,9.1934 -8.9147,13.1865 -2.693,2.5072 -5.8196,4.5193 -9.2243,5.9122 -0.0619,0.031 -0.124,0.031 -0.1859,0.031 -0.0619,0 -0.1545,0 -0.2165,-0.031 -3.4053,-1.424 -6.5318,-3.4049 -9.2247,-5.8814 -3.5288,-3.1883 -6.6859,-7.8933 -8.9456,-13.2173 -3.3431,-7.8932 -4.9526,-17.0869 -5.0144,-27.642 0,-0.1859 0.0924,-0.3405 0.2165,-0.4333 6.8099,-4.4267 16.0033,-8.2961 23.0302,-9.596l0.1857 0c3.281,0.6499 6.5,1.5787 9.5956,2.786 4.7359,1.7644 9.2863,4.024 13.5269,6.7478 0.1551,0.0929 0.2169,0.2477 0.2169,0.4027 -0.0311,10.4313 -1.7026,19.6248 -5.0457,27.735z"/>
   <path class="fil3" d="M33.3998 13.1788c0.217,0.0311 0.4336,0.0619 0.6503,0.1236 0.2477,0.1551 0.2477,0.4955 0.4025,0.7738 -0.9598,0.1548 -1.2693,-0.5263 -1.7337,-1.0522 0.155,0 0.4027,0.0929 0.6809,0.1547zm-19.0677 23.2157l0 0c-2.6309,-3.5598 -3.1572,-8.2647 -1.3929,-12.3199 3.8077,-9.2861 14.0841,-6.7477 15.0745,-6.3765 -0.0308,-0.8669 0.5882,-1.6098 1.455,-1.7645 0.2477,-0.0617 0.5263,-0.0617 0.7741,-0.0312 0.0617,0 0.1233,0.0624 0.0617,0.0624 -0.9905,0.2477 -1.7333,0.7738 -1.7026,1.7022 0.0313,0.8667 0.9288,1.486 1.6719,1.6407 0.3406,0.0619 0.7118,0.0311 1.0213,-0.1547l0.0309 0c0.1239,-0.0929 0.2478,-0.1548 0.3717,-0.1858 0.3094,-0.0929 0.6188,-0.124 0.9286,-0.0311 0.0926,0.0311 0.2477,0.155 0.4023,0.155 0.093,0 0.2479,-0.155 0.3713,-0.155 0.5882,-0.0308 1.8885,0.4334 1.9195,0.7432 0.0308,0.2166 -0.3097,0.4642 -0.4955,0.6188 -0.1855,0.1548 -0.4025,0.2787 -0.6498,0.3716 -0.0618,0.0308 -0.0309,0.0308 0,0.0308 1.0214,-0.1236 2.8787,-0.8046 2.6001,0.4645l-0.093 0.2785c0,0 0,0.0308 0.0313,0.0308 1.0215,-0.3405 1.331,-1.238 1.1761,-2.4454 0,-0.0308 -0.0311,-0.0308 -0.0311,0 -0.093,0.1548 -0.2165,0.2787 -0.3405,0.3716 0,-0.3405 0.0311,-0.8357 -0.1855,-1.0833l-0.031 0c0.0927,0.4953 -0.2166,0.9904 -0.6811,1.145 -0.3404,-0.6191 -0.7739,-1.2072 -1.2382,-1.7333l-0.031 0c0,0.1859 0,0.4024 -0.0618,0.5883 0,0 -0.0312,0.0307 -0.0312,0 -0.1235,-0.3405 -0.4333,-0.5575 -0.7738,-0.5883 -0.2479,-0.031 -0.4954,0.0308 -0.7737,0 -0.3717,-0.0621 -0.774,-0.3097 -0.805,-0.5881 -0.0308,-0.4333 0.7738,-0.6503 1.1761,-0.7429 0.1241,0.2477 0.217,0.4952 0.2787,0.7737 0,0.031 0.0312,0.031 0.0312,0.031 0.4641,-0.4333 1.0834,-0.6811 1.7022,-0.7429 0.1859,0 0.5881,0.0618 0.6503,0.1859 0.1547,0.3094 -0.217,0.6499 -0.3404,0.7736 -0.217,0.2169 -0.124,0.1858 -0.093,0.1858 0.557,-0.2165 1.0523,-0.557 1.4545,-0.9593 0.2478,0.4329 0.3717,0.9593 0.3099,1.4546 0,0 0,0.0311 0.0308,0.0311l0.031 0c0.4953,-0.557 0.5264,-1.3928 0.4642,-2.3524 0.4956,0.1546 0.8979,0.4641 1.2384,0.8668 0.0308,0.0308 0.0618,0.0308 0.0308,0 -0.2783,-0.4952 -0.6811,-0.898 -1.1452,-1.2074 -0.1858,-0.0927 -0.3715,-0.1857 -0.5262,-0.3095 -0.1237,-0.1238 -0.2784,-0.5261 -0.4336,-0.5573 -0.2164,-0.0308 -0.4639,0.1858 -0.7116,0.2169 -0.4334,0.0307 -0.6498,-0.2786 -0.7429,-0.681 -1.0527,0.3093 -1.455,-0.3405 -1.6715,-1.1146l-0.0927 -0.4641c-0.0929,-0.1856 -0.4954,-0.3716 -0.7121,-0.4644 -0.3095,-0.1237 -0.6501,-0.1547 -0.9904,-0.1237 -0.279,0.093 -0.5883,0.1548 -0.867,0.2166 -0.8665,-0.031 -1.7022,-0.2787 -2.4143,-0.7117 -2.0121,-1.0837 -3.8075,-2.5695 -5.262,-4.3338 -0.0624,-0.062 -0.0624,0 -0.0624,0.0311 0.9598,2.2285 2.6002,4.1168 4.7052,5.355 -2.2905,-0.5882 -4.3954,-1.6404 -6.2525,-3.1265 -0.0313,-0.0308 -0.093,-0.0618 -0.0313,0.0311 0.8358,1.0833 1.7956,2.0431 2.8788,2.8788l0.0312 0.0308c-1.5478,0.6191 -3.8386,0.8668 -5.6959,1.3003 -0.0928,0.0306 -0.0928,0.0618 -0.0308,0.0618 1.0834,0.0618 2.1667,0.2164 3.2191,0.4333l-0.0308 0c-4.2098,0.1546 -7.8627,1.3928 -10.4006,3.7453 -0.0311,0.0312 0,0.0622 0.0307,0.0312 0.6192,-0.2788 1.238,-0.4953 1.8573,-0.6812 -0.6193,0.5882 -1.2692,1.1763 -1.8261,1.7955 -0.8358,0.9288 -1.2075,0.8665 -1.6099,0.2167 -0.3094,-0.3406 -0.3094,-1.424 0.1238,-1.6404 0.5262,0.1546 0.8667,-0.2787 0.8049,-0.774 -0.0929,-0.6809 -0.8668,-1.1454 -1.3309,-1.4548 -0.0623,-0.0312 -0.0929,-0.0312 -0.0623,0 0.248,0.2475 0.5883,0.4951 0.6503,0.8668 0.0308,0.1546 0.0308,0.4333 -0.1239,0.4952 -0.2477,0.0618 -0.3714,-0.186 -0.6188,-0.1548 -0.2169,0.0308 -0.3099,0.4024 -0.3406,0.6499 -0.0623,0.3095 -0.0623,0.6192 -0.0623,0.9597 0,0.1548 0.0623,0.4024 -0.0618,0.526 -0.1547,-0.0618 -0.1857,-0.2476 -0.2475,-0.4024 -0.3407,-0.5263 -0.4954,-1.1762 -0.4643,-1.8262 0.0926,-0.031 0.2784,0 0.3713,-0.0618 -0.0307,-0.4027 -0.2166,-0.805 -0.5263,-1.0525 -0.4329,-0.4024 -1.0213,-0.5572 -1.5787,-0.4335 -0.0307,0 -0.0307,0.0312 0,0.0312 0.4025,0.0618 1.1457,0.1546 1.1763,0.5262 0,0.1547 -0.1858,0.3713 -0.2475,0.4953 -0.2168,0.7429 -0.062,1.5167 0.4021,2.1356 0.217,0.2787 0.4954,0.5264 0.31,1.0215 -0.2478,-0.0618 -0.4646,-0.1546 -0.6504,-0.2786 -0.3093,-0.1235 -0.5571,-0.3402 -0.7736,-0.5881 -0.1552,-0.2783 -0.1552,-0.5882 -0.3717,-0.8048 -0.5881,-0.6499 -1.5166,-0.8667 -2.3215,-0.5262 -0.0309,0 -0.0309,0.0311 0,0.0311 0.65,-0.0311 1.2383,0.0311 1.4856,0.4641 0.1242,0.2477 0.186,0.5264 0.2167,0.805 0,0.1236 -0.0307,0.2786 0.0311,0.3713 0.0929,0.1857 0.4333,0.155 0.6193,0.2476 0.2475,0.155 0.4021,0.5264 0.6808,0.7739 0.062,0.0622 0.1547,0.1239 0.2478,0.1857 0.4329,0.2478 1.3309,0.4647 1.6715,0.8048 0.5259,0.5262 0.2475,1.4242 0.0618,2.0123 -0.2477,0.6188 -0.3716,1.2688 -0.4024,1.9191 0,0.0308 0.0308,0.0618 0.0308,0.0308 0.4956,-0.5571 1.0527,-1.0523 1.7025,-1.4547 -0.6188,1.2998 -1.1452,2.662 -1.5166,4.0547 -0.3406,1.2692 -0.8666,3.3739 -0.062,4.5813 0,0.0312 0.0312,0.0312 0.0312,0 0.0618,-0.4024 0.0618,-0.8668 0.3405,-1.0526 0.8045,2.2288 2.1356,4.2409 3.9001,5.8195 0.1546,-0.0308 0.1856,-0.062 0.1546,-0.1237z"/>
   <path class="fil3" d="M19.8728 25.5913c6.0363,1.7646 11.2674,-1.9501 12.3507,-3.3119 0.1857,-0.2169 0.124,-0.2476 -0.0618,-0.1238 -0.8976,0.7428 -1.888,1.3308 -2.9407,1.8261 -4.3956,2.167 -9.0385,1.0215 -9.1626,0.7433 -0.1235,-0.217 0.3094,-0.1859 0.3094,-0.1859 9.4101,-0.3098 11.2674,-4.4267 11.2368,-4.5814 0,-0.1548 -0.1548,0.0312 -0.1548,0.0312 -2.4454,3.1882 -8.7912,3.5287 -8.7912,3.5287 -1.6714,0.1546 -3.0336,-0.1241 -3.8692,-0.8976 -0.2167,-0.217 -0.3713,-0.4644 -0.4953,-0.7433l-0.031 0c-0.1237,0.2477 -0.3094,0.4645 -0.4954,0.681 -0.2164,0.2787 -0.5569,0.4024 -0.7735,0.2477 -0.681,-0.4641 1.1451,-3.0643 2.6001,-4.2098 0.062,-0.062 0.2784,-0.2477 0.1548,-0.1855 -3.1882,1.3309 -5.5718,4.0858 -6.4388,7.4599 -0.2783,0.9904 -0.4022,2.0431 -0.4022,3.0643 0,1.0525 0.1238,2.1049 0.3715,3.1265 0.3712,1.6406 0.9904,3.2192 1.7952,4.6743 0.062,0.0923 0.062,0.0307 0.0927,0.0307 0.2169,-0.4024 0.4029,-0.8357 0.5264,-1.2999 0.124,-0.5262 0.3094,-1.0526 0.5264,-1.5478 0.5881,-0.9593 3.7145,-0.7117 2.8476,-1.3621 -0.2475,-0.1854 -0.4953,-0.4023 -0.7122,-0.6499 -0.4329,-0.4641 -0.8357,-0.9597 -1.2069,-1.4857 -0.805,-1.0832 -1.3001,-2.3834 -1.3933,-3.7456 0,-0.0618 0.0313,-0.0618 0.0624,0 0.6805,1.9503 2.1357,3.5287 3.993,4.3955 1.0216,0.4335 2.0738,0.7123 3.1571,0.8358 0.093,0 0.093,-0.0311 0,-0.0311 -2.3215,-0.526 -4.6429,-2.1048 -5.6025,-3.9929 0,0 -0.4024,-0.6192 -0.1547,-0.7429 0.2476,-0.1239 0.6499,0.4024 1.0523,0.7739 0.8361,0.743 1.8573,1.3309 2.9407,1.6404 1.6407,0.4644 3.3739,0.4952 5.0456,0.1241 0.0623,0 0.0623,-0.0312 0,-0.0312 -1.4548,0.1546 -2.9408,0.0312 -4.3336,-0.4025 -2.8166,-1.0833 -3.6527,-2.4764 -3.4359,-2.724 0.2789,-0.3094 3.56,2.8171 8.9149,0.4644 1.1145,-0.4952 2.1358,-1.1454 3.0643,-1.9195 0.0623,-0.0618 0.031,-0.1236 0,-0.0924 -1.7951,0.9592 -3.5287,1.9498 -6.1595,2.105 -1.6097,0.0924 -3.2196,-0.3098 -4.6123,-1.1146 -0.2169,-0.1547 -0.3098,-0.2477 -0.2169,-0.3405 0.1239,-0.1546 0.4024,-0.0312 0.4024,-0.0312z"/>
   <path class="fil3" d="M41.1385 34.692c-0.2782,0.1859 -0.5882,0.2477 -0.9286,0.2166 -0.2478,-0.0307 -0.4954,-0.0307 -0.743,0 -0.0618,0 -0.0928,0.0311 -0.1235,0.0622 -0.4334,0.4023 -0.6811,0.2164 -0.6504,-0.0622 0.0311,-0.2166 0.0624,-0.4335 0.155,-0.6501 0.2167,-0.3404 0.3713,-0.7117 0.5261,-1.1144 0.0622,-0.3406 -0.0307,-0.6811 -0.1859,-0.9904 -0.0618,-0.1547 -0.2782,-0.7429 0.4646,-0.7118 0.0929,0 0.1857,-0.0311 0.2475,-0.0929 0.5264,-0.4027 0.8048,-1.0214 0.774,-1.6712 0,-0.0312 -0.031,-0.0624 -0.031,-0.0312 -0.1548,0.2786 -0.4334,0.495 -0.712,0.6191 -0.2475,0.0924 -0.4644,0.2165 -0.681,0.3405 -0.0622,0.0619 -0.0927,0.1236 -0.1239,0.1853 -0.2165,0.5265 -0.4641,0.3099 -0.4952,0.2478 -0.1546,-0.2783 -0.4024,-0.5261 -0.6811,-0.7117 -0.8357,-0.4645 -1.795,-0.6498 -2.7548,-0.5574 -0.4642,0.031 -0.9286,0.0928 -1.3619,0.155 -0.2167,0.0307 -0.4336,0.0617 -0.6189,0.0617 -0.8669,0.0312 -0.2788,-0.9595 0.4329,-1.1449 0.5265,-0.1552 1.1145,-0.0312 1.5167,0.3401 0.0312,0.0311 0.0623,0.0311 0.0623,0 -0.2786,-0.6807 -1.455,-3.0953 -5.6029,-2.7549 -0.0618,0 -0.0618,0.0312 -0.0308,0.0622 0.8665,0.1546 1.6715,0.4024 2.4762,0.8047 0.2477,0.1235 0.7429,0.4952 0.6192,1.0214 -0.2169,0.4953 -0.588,0.9287 -1.0527,1.2382 -0.3712,0.1241 -0.7736,0.0929 -1.114,-0.0928 -0.8051,-0.4334 -1.3314,-1.2693 -1.424,-2.1667 0,0 -0.031,-0.0619 -0.031,0 -0.3095,1.3621 0.5262,2.724 1.8879,3.0335 0.0622,0.0306 0.1551,0.0306 0.217,0.0306 0.4024,0.0929 0.3713,0.805 0.2785,1.1456 -0.0927,0.4023 -0.7121,0.4334 -1.1761,0.3712 -0.4334,-0.0619 -0.8359,-0.2477 -1.1763,-0.4952 -0.5574,-0.4334 -1.0215,-0.9594 -1.3932,-1.5474 -0.0617,-0.0929 -0.0928,-0.0929 -0.0617,0 0.3403,0.8357 0.8975,1.5785 1.6403,2.1049 0.8978,0.6809 2.0121,1.0215 3.1576,0.9287 0.7428,-0.0624 1.4547,-0.217 2.1667,-0.4646 0.0617,-0.0307 0.0617,-0.0618 0,-0.0618 -0.9598,0 -2.1667,0 -2.4145,-0.65 -0.0926,-0.2169 -0.1547,-1.1455 0.3407,-1.1145 0.681,0.0312 1.3927,0 2.0738,-0.1239 0.6498,0 1.3001,0.0928 1.919,0.3098 0.4646,0.1546 0.8358,0.4334 1.1146,0.8358 0.4951,0.7117 0.3712,1.9501 0.1859,2.9713 -0.1859,0.8669 -0.4646,1.7025 -0.8053,2.5383 -0.6497,1.6407 -1.9807,4.148 -3.0334,5.0767 -1.3617,1.0522 -2.9714,1.795 -4.674,2.1667 -0.7738,0.2165 -1.5785,0.3404 -2.3524,0.3716 -1.8883,0.0924 -3.4053,-0.1859 -4.3957,-1.0527 -0.4952,-0.4642 -0.8356,-1.0215 -1.0833,-1.6404 -0.3095,-1.5167 0.5263,-1.9501 2.5693,-1.3313 0.6502,0.1858 1.0523,-0.3713 1.5477,-0.4023 0.2475,0 0.4334,0.1547 0.6499,0.0927 0.1551,-0.031 0.2786,-0.3092 0.4026,-0.4951 0.1237,-0.1858 0.2784,-0.3405 0.4642,-0.4641 0.5881,-0.3406 1.2074,0.0618 1.6096,0.3094 0.0312,0.0306 0.062,0 0.062,-0.0311 -0.5883,-0.774 -1.6406,-1.0216 -2.5383,-0.65 -0.1855,0.0929 -0.3715,0.3405 -0.5882,0.4953 -0.433,0.1547 -0.8975,0.2164 -1.3309,0.1239 -0.1548,0 -0.3404,0.0308 -0.4642,-0.0622 0.1238,-0.6188 0.7117,-0.6188 1.1451,-0.8976 0.7122,-0.3406 1.1763,-1.0523 1.2691,-1.8261 0,-0.124 -0.0309,-0.2787 0.0621,-0.4024 0.0926,-0.124 0.3096,-0.124 0.5262,-0.0929 0.2785,0.0618 0.5881,0.1547 0.8357,0.2783 0.0618,0.0312 -0.0928,-0.1236 -0.1547,-0.1854 -0.8045,-0.6503 -2.2908,-0.3405 -2.6312,0.3712 -0.0619,0.1241 0.2787,0.1241 0.3098,0.2788 0.0306,0.1546 -0.217,0.4024 -0.3405,0.5262 -0.2788,0.3095 -0.6193,0.5571 -0.9598,0.7737 -0.1857,0.1239 -0.3404,0.3097 -0.5569,0.3097 0.1235,-0.3404 0.3091,-0.681 0.5257,-0.9597 0.1242,-0.2475 0.4336,-0.8975 0.2788,-1.1451 -0.1237,-0.1547 -0.65,-0.0622 -0.7118,-0.2787 -0.0622,-0.1546 0.0618,-0.3405 0.1547,-0.4333 0.3094,-0.2477 0.6812,-0.4334 1.0836,-0.4952 0.0618,0 0.031,-0.0312 -0.0313,-0.0312 -0.7116,0.0312 -1.8261,0.2787 -2.105,0.8051 -0.1858,0.3094 -0.0927,0.7428 0.2477,0.9287 0.0623,0.0307 0.124,0.0617 0.1859,0.0617 0.1547,0.5571 -0.1547,1.5168 -0.8669,1.6099 -0.9594,0.1234 -1.6714,-0.5264 -1.2689,-2.1979 0,0 0,-0.0619 -0.0309,-0.0311l-0.093 0.0928c-0.0619,0.0623 -0.0929,0.124 -0.1547,0.1546 -0.6499,0.5883 -2.0738,1.4862 -3.2813,0.898 -0.2475,-0.1239 -0.4333,-0.3097 -0.5568,-0.5573 -0.5882,-1.2689 0.7428,-2.1668 1.7331,-1.981 0.4335,0.062 0.8048,0.3717 0.7429,0.8358 -0.0928,0.3094 -0.3716,0.5263 -0.7117,0.4953 -0.217,0 -0.4029,-0.0929 -0.5882,-0.2166 -0.186,-0.1859 -0.2169,-0.3716 -0.2479,-0.3097 -0.3402,1.486 1.7335,1.393 2.4454,0.6809 0.7431,-0.6188 0.8979,-1.7021 0.3716,-2.5071 -0.3716,-0.5264 -1.0216,-0.7739 -1.6714,-0.7119 -0.6499,0.0308 -1.3004,0.2166 -1.8884,0.5261 -0.5571,0.4333 -0.6811,1.2692 -0.8359,1.9812 -0.1236,0.7117 -0.4332,1.362 -0.8975,1.888 0,0.0311 0,0.0311 0.0311,0.0311 0.3406,-0.0311 0.65,0.0929 0.8664,0.3095 0.4646,0.4333 -0.3406,0.0928 -0.8664,0.4023l-0.0311 0c-1.0527,0.681 -1.7333,1.8266 -1.7956,3.0645 0,0.062 0.031,0.1241 0.0623,0.062 0.3713,-0.4953 0.8975,-0.8976 1.4856,-1.0834 0.4641,-0.1236 0.9288,-0.3095 1.3621,-0.5263 0.1546,-0.0926 0.2477,-0.2784 0.2782,-0.4331 0.093,-0.4027 0.4952,-0.4645 0.4646,-0.0928 -0.0312,0.557 -0.4333,0.9904 -0.1859,1.6403 0.2478,0.6811 0.9598,0.9905 1.5787,1.3932 0.1238,0.0924 0.4645,0.3712 -0.4952,0.6807l-0.0619 0c-0.0311,0 -0.0311,0.031 -0.0618,0.031 -0.0311,0 -0.0311,0 -0.0624,0.0312 -0.8975,0.5881 -1.4545,1.5475 -1.5166,2.6001 0,0.0619 0.0311,0.093 0.0311,0.0619 0.3093,-0.4335 0.7428,-0.7429 1.2692,-0.9287 0.4024,-0.1236 0.7738,-0.2787 1.1451,-0.4641 0.1241,-0.0929 0.1858,-0.1858 0.217,-0.3405 0.2782,-0.7739 0.5259,-0.4335 0.557,-0.1858 0.0312,0.2477 0.1239,0.4951 0.2478,0.7117 0.3093,0.4955 1.0527,0.4334 1.7643,0.5575 0.2477,0.0308 0.5263,0.2477 -0.0618,0.557 -0.0618,0.0311 -0.124,0.0619 -0.1547,0.1241 -0.7121,0.7427 -1.0527,1.7643 -0.8668,2.7858 0,0.0619 0.031,0.0926 0.0618,0.0308 0.2168,-0.4641 0.5574,-0.8668 0.9907,-1.1451 0.3402,-0.1858 0.6807,-0.4024 0.9595,-0.681 0.0926,-0.124 0.1545,-0.2478 0.1239,-0.4024 -0.0313,-0.7429 0.3712,-0.6192 0.4952,-0.4334 0.2164,0.3405 0.3712,0.7118 0.8045,0.8668 0.3717,0.0619 0.7739,0 1.1145,-0.155 0.2788,-0.062 0.5264,-0.1237 0.8048,-0.1547 0.4644,-0.0619 0.3097,0.3716 0.0621,0.681l-0.031 0.0311 0 0.0308c-0.0311,0.0311 -0.0311,0.0621 -0.0619,0.0928 -0.3406,0.805 -0.2788,1.7336 0.1857,2.4766 0.0309,0.0618 0.0621,0.0618 0.0621,0 0,-0.4334 0.1545,-0.8669 0.4333,-1.2074 0.2163,-0.2477 0.4022,-0.5264 0.557,-0.8357 0.031,-0.0929 0.031,-0.1859 0,-0.2477 -0.0311,-0.0618 0,0 0,-0.0311l0 -0.0307c-0.2478,-0.7122 0.1239,-0.805 0.4333,-0.7122 0.5264,0.1858 1.0833,0.1858 1.6097,0 0.4333,-0.1858 0.8045,-0.4641 1.1452,-0.774 0.3094,-0.3093 0.6499,-0.588 1.0527,-0.8045 0.2781,-0.0929 0.4329,0.0619 0.3713,0.5571 -0.0311,0.124 0,0.2169 0.031,0.3098 0.3406,0.7117 1.0215,1.207 1.7951,1.362 0.0623,0 0.0623,0 0.0312,-0.0311 -0.2786,-0.2787 -0.4953,-0.6192 -0.5571,-1.0216 -0.0622,-0.3093 -0.124,-0.5881 -0.2477,-0.8668 -0.0311,-0.0307 -0.0623,-0.0928 -0.0927,-0.1235l-0.0312 -0.0313c-0.0311,-0.0306 -0.0618,-0.0306 -0.093,-0.0618 -0.4951,-0.2786 -0.3091,-0.6499 0.1859,-0.7738 1.0216,-0.2166 2.1667,-0.4641 2.6931,-1.1452 0.2786,-0.4645 0.4642,-0.9596 0.5264,-1.4859 0.0927,-0.4643 0.2165,-0.9283 0.3712,-1.3618 0.0618,-0.1858 0.1239,-0.7121 0.9286,-0.0622 0.093,0.0929 0.1859,0.124 0.3094,0.1551 0.774,0.0924 1.5479,-0.2169 2.105,-0.805 0.031,-0.0308 0.031,-0.0619 0,-0.0619 -0.3712,0.093 -0.7735,0.093 -1.1452,-0.0619 -0.2786,-0.1239 -0.5881,-0.2168 -0.8668,-0.2785l-0.1237 0c-0.9902,0.1857 -0.4951,-0.4024 -0.4022,-0.5264 0.2782,-0.4024 0.6499,-0.7117 0.9286,-1.1146 0.3405,-0.6188 0.5572,-1.3309 0.6188,-2.0426 0.0311,-0.1546 0.124,-0.5575 0.9287,-0.3098 0.0311,0.0311 0.0619,0.0311 0.124,0.0311l0.1854 0c0.6503,-0.1236 1.1764,-0.5263 1.4551,-1.1145 -0.062,0.124 -0.062,0.124 -0.0929,0.124z"/>
  </g>
 </g>
</svg>
