<?xml version="1.0" encoding="UTF-8"?>
<!DOCTYPE svg PUBLIC "-//W3C//DTD SVG 1.1//EN" "http://www.w3.org/Graphics/SVG/1.1/DTD/svg11.dtd">
<!-- Creator: CorelDRAW 2019 (64-Bit) -->
<svg xmlns="http://www.w3.org/2000/svg" xml:space="preserve" width="175.856mm" height="48.2684mm" version="1.1" style="shape-rendering:geometricPrecision; text-rendering:geometricPrecision; image-rendering:optimizeQuality; fill-rule:evenodd; clip-rule:evenodd"
viewBox="0 0 175.7359 48.2355"
 xmlns:xlink="http://www.w3.org/1999/xlink"
 xmlns:xodm="http://www.corel.com/coreldraw/odm/2003">
 <defs>
  <style type="text/css">
   <![CDATA[
    .str0 {stroke:#0A0208;stroke-width:3.7201;stroke-miterlimit:4}
    .fil3 {fill:none}
    .fil0 {fill:#1E4498}
    .fil2 {fill:black}
    .fil1 {fill:white}
   ]]>
  </style>
 </defs>
 <g id="Layer_x0020_1">
  <metadata id="CorelCorpID_0Corel-Layer"/>
  <g id="_750741920">
   <path class="fil0" d="M80.3025 41.9742c0,2.7746 -2.2391,5.0094 -5,5.0094l-70.3074 0c-2.757,0 -4.9951,-2.2348 -4.9951,-5.0094l0 -36.9694c0,-2.7526 2.2381,-5.0048 4.9951,-5.0048l70.3074 0c2.7609,0 5,2.2522 5,5.0048l0 36.9694z"/>
   <polygon class="fil1" points="44.4003,16.215 46.2357,10.8804 39.0248,10.8804 37.3278,16.215 "/>
   <polygon class="fil1" points="32.814,16.215 32.2501,10.8804 26.7329,10.8804 23.9205,16.215 "/>
   <polygon class="fil1" points="36.6534,18.3286 33.9331,26.8606 33.0207,18.2148 23.049,17.847 18.5634,26.324 19.8387,17.7331 12.9121,17.5032 10.8979,35.6213 20.4165,35.6213 27.6813,20.9119 29.1632,35.6213 37.7179,35.6213 43.5889,18.5809 "/>
   <polygon class="fil1" points="20.063,16.215 20.8662,10.7841 13.6553,10.7841 13.0544,16.1917 "/>
   <path class="fil1" d="M61.7293 10.8804l-13.6406 0 -1.7754 5.3347 12.3022 0c3.3947,0.0961 5.0633,2.8661 3.9169,6.2926 -1.1696,3.4865 -4.5733,6.1413 -8.4527,6.3161 -0.9912,0.06 -1.3401,0.1564 -2.7574,0.0413l3.3619 -9.8989 -9.1825 -0.3252 -5.6597 16.9804 13.6364 0c6.8624,0 14.3752,-5.4119 16.6916,-12.3608 2.3159,-6.9726 -1.5501,-12.3802 -8.4406,-12.3802z"/>
   <polygon class="fil2" points="96.0441,3.908 100.3879,3.908 103.5111,17.3893 103.5615,17.3893 106.4384,3.908 110.1115,3.908 105.5435,21.8149 101.2776,21.8149 98.0533,8.1832 98.0026,8.1832 94.5349,21.8149 90.1683,21.8149 85.8014,3.908 89.7688,3.908 92.5216,17.3893 92.5765,17.3893 "/>
   <path class="fil2" d="M112.9048 16.6001c0,1.5961 0.2115,3.1189 2.1198,3.1189 1.3067,0 1.9444,-0.4817 2.2883,-1.6193l3.3537 0c-0.3265,3.0825 -2.7337,4.1004 -5.642,4.1004 -4.2567,0 -5.9675,-2.4083 -5.9675,-6.5865 0,-3.7337 2.1746,-6.6238 5.9675,-6.6238 2.3486,0 4.2754,0.7939 5.3156,2.986 0.3443,0.693 0.5192,1.427 0.6154,2.2349 0.0963,0.7702 0.0963,1.5593 0.0963,2.3895l-8.147 0zm4.3119 -2.486l0 0c0,-1.3678 -0.3805,-2.6382 -2.1921,-2.6382 -1.6919,0 -2.0775,1.2704 -2.1198,2.6382l4.3119 0z"/>
   <path class="fil2" d="M129.1564 12.6877c-0.0552,-0.8444 -0.8478,-1.2119 -1.6922,-1.2119 -1.0225,0 -1.4819,0.3079 -1.4819,1.1153 0,1.9669 7.1055,0.8478 7.1055,5.5084 0,2.716 -3.3162,4.1004 -5.6236,4.1004 -2.9084,0 -5.4308,-1.1557 -5.4907,-4.0039l3.449 0c0.0785,0.9625 0.9403,1.5228 2.0416,1.5228 1.0183,0 1.7884,-0.426 1.7884,-1.3904 0,-0.9995 -1.7884,-1.4219 -2.5409,-1.5957 -2.366,-0.5781 -4.5818,-1.0968 -4.5818,-3.9866 0,-2.6185 3.155,-3.7565 5.3343,-3.7565 2.6375,0 4.8534,0.9453 5.0225,3.698l-3.3302 0z"/>
   <path class="fil2" d="M134.7024 9.3752l0 -2.4624 3.715 -1.3495 0 3.8119 2.8114 0 0 2.4681 -2.8114 0 0 5.7936c0,1.618 0.2526,2.082 1.5408,2.082 0.4037,0 0.7891,-0.0596 1.193,-0.0775l0 2.1735c-0.4215,0.1928 -2.4037,0.3851 -2.9261,0.3851 -2.9086,0 -3.5227,-1.5185 -3.5227,-4.2156l0 -6.1411 -1.3671 0 0 -2.4681 1.3671 0z"/>
   <path class="fil2" d="M145.4676 16.6001c0,1.5961 0.2289,3.1189 2.1371,3.1189 1.2891,0 1.927,-0.4817 2.2709,-1.6193l3.3524 0c-0.3112,3.0825 -2.7147,4.1004 -5.6233,4.1004 -4.2754,0 -5.9897,-2.4083 -5.9897,-6.5865 0,-3.7337 2.1968,-6.6238 5.9897,-6.6238 2.3307,0 4.2752,0.7939 5.3121,2.986 0.3479,0.693 0.5225,1.427 0.619,2.2349 0.0963,0.7702 0.0963,1.5593 0.0963,2.3895l-8.1645 0zm4.3117 -2.486l0 0c0,-1.3678 -0.3674,-2.6382 -2.1745,-2.6382 -1.7154,0 -2.082,1.2704 -2.1371,2.6382l4.3117 0z"/>
   <path class="fil2" d="M161.2365 12.5177c-0.6142,0.055 -1.4443,0.4034 -1.8108,0.9214 -0.4041,0.6929 -0.4827,1.3857 -0.5003,2.1971l0 6.1788 -3.6976 0 -0.0177 -9.9716c0,-0.5226 -0.0785,-1.5597 -0.1339,-2.4681l3.4089 0 0.0729 2.2568 0.041 0c0.8078,-1.9679 2.3862,-2.4671 4.2532,-2.4083l-1.6157 3.294z"/>
   <path class="fil2" d="M167.5114 10.8014l0.06 0.0789c0.7703,-1.138 1.9446,-1.8906 3.8115,-1.8906 1.2528,0 3.66,0.9267 4.1004,2.7383 0.1928,0.767 0.2526,1.5594 0.2526,1.9825l0 8.1043 -3.7152 0 0 -7.4909c-0.0414,-1.3254 -0.4041,-2.8482 -2.2335,-2.8482 -1.1743,0 -2.1969,1.0418 -2.2345,2.8482l0 7.4909 -3.7376 0 0 -12.4397 3.6963 0 0 1.4262z"/>
   <path class="fil2" d="M87.1684 25.3974l6.1009 0c5.5777,-0.0363 9.0546,2.7337 9.0546,8.9534 0,6.2376 -3.4769,9.0136 -9.0546,8.9534l-6.1009 0 0 -17.9068zm3.8439 14.9434l0 0 1.9812 0c4.5641,0.0377 5.2381,-3.1192 5.2381,-5.99 0,-2.8486 -0.674,-6.0083 -5.2381,-5.9674l-1.9812 0 0 11.9574z"/>
   <path class="fil2" d="M103.8835 25.3974l3.976 0 0 3.1973 -3.976 0 0 -3.1973zm0.1227 5.4674l0 0 3.7208 0 0 12.4584 -3.7208 0 0 -12.4584z"/>
   <path class="fil2" d="M121.6659 42.2078c0,2.8848 -0.6328,6.0636 -6.1045,6.0273 -2.7527,0 -5.6975,-0.674 -5.7751,-4.0276l3.5227 0c0.0599,1.12 1.0411,1.5414 2.0596,1.5414 2.8346,0 2.7381,-2.5772 2.5819,-4.389l-0.06 0c-0.7651,1.215 -2.0772,1.7155 -3.4803,1.7155 -3.39,0 -5.1245,-3.1787 -5.1245,-6.2024 0,-3.1787 1.812,-6.3938 5.2936,-6.3938 1.6558,0 2.7161,0.5602 3.3112,1.8308l0.06 0 0 -1.4453 3.7154 0 0 11.3431zm-6.1236 -1.6194l0 0c2.0421,0 2.4083,-2.0773 2.4083,-3.6963 0,-1.8308 -0.3662,-3.927 -2.4083,-3.927 -2.0406,0 -2.4025,2.0963 -2.4025,3.927 0,1.619 0.3619,3.6963 2.4025,3.6963z"/>
   <path class="fil2" d="M123.7665 25.3974l3.9633 0 0 3.1973 -3.9633 0 0 -3.1973zm0.115 5.4674l0 0 3.7341 0 0 12.4584 -3.7341 0 0 -12.4584z"/>
   <path class="fil2" d="M130.313 30.8647l0 -2.4627 3.7155 -1.3301 0 3.7928 2.8109 0 0 2.4858 -2.8109 0 0 5.7747c0,1.638 0.2513,2.0784 1.5404,2.0784 0.4039,0 0.7892,-0.055 1.1929,-0.0739l0 2.1745c-0.4228,0.2118 -2.4035,0.3855 -2.9261,0.3855 -2.9085,0 -3.5227,-1.5229 -3.5227,-4.2153l0 -6.1238 -1.4818 0 0 -2.4858 1.4818 0z"/>
   <path class="fil2" d="M138.2659 34.3877c0.0367,-1.5597 0.7107,-2.5414 1.6923,-3.0969 1.0228,-0.5998 2.331,-0.8115 3.6787,-0.8115 2.5047,0 5.2937,0.9267 5.2937,4.6783l0 6.7979c0.041,0.6195 0.1372,0.9816 0.1737,1.3487l-3.3477 0c-0.06,-0.5598 -0.1153,-1.1373 -0.1153,-1.6553l-0.0599 0c-0.83,1.4439 -2.1183,2.0408 -3.8115,2.0408 -2.3296,0 -4.0638,-1.3481 -4.0638,-3.7749 0,-0.8671 0.3861,-2.9818 2.6559,-3.9447 1.4869,-0.6377 3.3714,-0.7162 4.8533,-0.6739l0 -1.1567c0,-0.5179 -0.3851,-1.5404 -1.7107,-1.5404 -1.2943,0 -1.7155,1.2106 -1.6557,1.7888l-3.583 0zm3.0051 5.0264l0 0c0,1.0419 0.7701,1.7895 1.8071,1.7895 2.0596,0 2.1371,-2.2884 2.1371,-3.7516 -1.2894,-0.0186 -3.9442,-0.0423 -3.9442,1.9622z"/>
   <line class="fil3 str0" x1="153.1096" y1="43.3042" x2="153.1096" y2= "25.3974" />
   <path class="fil2" d="M156.8658 27.4979c0,-1.4865 1.2106,-2.6971 2.7151,-2.6971 1.4819,0 2.6749,1.2106 2.6749,2.6971 0,1.4996 -1.193,2.7114 -2.6749,2.7114 -1.5046,0 -2.7151,-1.2119 -2.7151,-2.7114zm4.9306 0l0 0c0,-1.2156 -1.0039,-2.2158 -2.2155,-2.2158 -1.2519,0 -2.2335,1.0002 -2.2335,2.2158 0,1.2293 0.9815,2.2335 2.2335,2.2335 1.2116,0 2.2155,-1.0042 2.2155,-2.2335zm-2.7933 0.1695l0 0 0.4037 0c0.1741,0.0233 0.3489,0 0.4626,0.1384 0.1516,0.1515 0.1516,0.4028 0.1928,0.6737 0.0186,0.1927 0.0553,0.3854 0.0976,0.5782l0.6327 0c-0.1148,-0.2893 -0.1339,-0.6192 -0.1925,-0.9267 -0.0376,-0.3439 -0.0965,-0.5366 -0.5378,-0.6332 0.4228,-0.0961 0.6518,-0.385 0.6518,-0.7526 0,-0.7106 -0.5965,-0.8664 -1.192,-0.8664l-1.0191 0 0 3.1788 0.5003 0 0 -1.3904zm0.5188 -0.4817l0 0c0.4628,-0.0176 0.5778,-0.2104 0.5778,-0.458 0,-0.2346 -0.115,-0.3678 -0.5002,-0.3678l-0.5965 0 0 0.8258 0.5188 0z"/>
  </g>
 </g>
</svg>
